<?xml version="1.0" encoding="UTF-8"?>
<svg width="153px" height="33px" viewBox="0 0 153 33" version="1.1" xmlns="http://www.w3.org/2000/svg" xmlns:xlink="http://www.w3.org/1999/xlink">
    <!-- Generator: Sketch 57.1 (83088) - https://sketch.com -->
    <title>Group 8</title>
    <desc>Created with Sketch.</desc>
    <defs>
        <polygon id="path-1" points="6.12e-05 0.185200935 153 0.185200935 153 32.9998458 6.12e-05 32.9998458"></polygon>
    </defs>
    <g id="Page-1" stroke="none" stroke-width="1" fill="none" fill-rule="evenodd">
        <g id="Artboard" transform="translate(-564.000000, -19.000000)">
            <g id="Group-8" transform="translate(564.000000, 19.000000)">
                <g id="Group-3">
                    <mask id="mask-2" fill="white">
                        <use xlink:href="#path-1"></use>
                    </mask>
                    <g id="Clip-2"></g>
                    <path d="M22.5522612,20.2007804 L22.5522612,17.5484439 C22.5522612,10.454986 18.5742612,5.45903271 11.3220612,5.45903271 C4.1004612,5.45903271 6.12e-05,10.1157336 6.12e-05,17.5484439 L6.12e-05,21.0646402 C6.12e-05,30.4400327 6.7014612,32.9998458 11.4138612,32.9998458 C15.6672612,32.9998458 17.5032612,32.7531168 20.5632612,32.1979766 C21.4200612,32.043771 21.5424612,31.7353598 21.5424612,30.9643318 L21.5424612,27.8185374 C21.5424612,27.3559206 21.1752612,27.1091916 20.6856612,27.1091916 L20.5326612,27.1091916 C18.5436612,27.2942383 15.3000612,27.5718084 11.8422612,27.5718084 C7.3134612,27.5718084 6.1812612,24.3029579 6.1812612,21.527257 L6.1812612,21.3730514 L21.5730612,21.3730514 C22.2462612,21.4035841 22.5522612,20.9718084 22.5522612,20.2007804 L22.5522612,20.2007804 Z M16.2486612,16.9316215 L6.2730612,16.9316215 L6.2730612,16.7465748 C6.2730612,12.9842664 8.3844612,10.8867617 11.3220612,10.8867617 C14.2596612,10.8867617 16.2792612,13.0151075 16.2792612,16.7465748 L16.2792612,16.9316215 L16.2486612,16.9316215 Z M83.1708612,21.1571636 L83.1708612,17.3020234 C83.1708612,10.5169766 79.3152612,5.45903271 71.9100612,5.45903271 C64.5048612,5.45903271 60.6492612,10.4858271 60.6492612,17.3020234 L60.6492612,21.1571636 C60.6492612,27.9422103 64.5048612,32.9998458 71.9100612,32.9998458 C79.3152612,32.9998458 83.1708612,27.972743 83.1708612,21.1571636 L83.1708612,21.1571636 Z M76.9590612,21.1571636 C76.9590612,25.0428364 75.2148612,27.5718084 71.9100612,27.5718084 C68.6052612,27.5718084 66.8610612,25.0428364 66.8610612,21.1571636 L66.8610612,17.3020234 C66.8610612,13.4157336 68.6052612,10.8867617 71.9100612,10.8867617 C75.2148612,10.8867617 76.9590612,13.4157336 76.9590612,17.3020234 L76.9590612,21.1571636 Z M106.732861,31.6736776 L106.732861,27.8185374 C106.732861,27.3559206 106.365355,27.0475093 105.876061,27.0475093 L95.5944612,27.0475093 C95.4108612,27.0475093 95.3190612,26.9858271 95.3190612,26.862771 L95.4108612,26.7085654 L106.396261,11.5344252 C106.549261,11.3493785 106.641061,10.6711822 106.641061,10.454986 L106.641061,7.77211682 C106.641061,6.72321028 105.784261,5.82881776 104.743861,5.82881776 L88.7094612,5.82881776 C88.1892612,5.82881776 87.7608612,6.26059346 87.7608612,6.78489252 L87.7608612,10.1465748 C87.7608612,10.6091916 88.1280612,10.9176028 88.6173552,10.9176028 L99.2664612,10.9176028 C99.4194612,10.9176028 99.5418612,10.9795935 99.5418612,11.0718084 C99.5418612,11.1646402 99.4803552,11.226014 99.3888612,11.3493785 L87.9750612,27.1711822 C87.5463552,27.726014 87.3630612,28.1580981 87.3630612,28.6820888 L87.3630612,30.7179112 C87.3630612,31.7662009 88.2198612,32.6300607 89.2602612,32.6300607 L105.784261,32.6300607 C106.304461,32.6300607 106.732861,32.1979766 106.732861,31.6736776 L106.732861,31.6736776 Z M133.630261,20.2007804 L133.630261,17.5484439 C133.630261,10.454986 129.652261,5.45903271 122.400061,5.45903271 C115.178461,5.45903271 111.078061,10.1157336 111.078061,17.5484439 L111.078061,21.0646402 C111.078061,30.4400327 117.779461,32.9998458 122.491861,32.9998458 C126.745261,32.9998458 128.581261,32.7531168 131.641261,32.1979766 C132.498061,32.043771 132.620461,31.7353598 132.620461,30.9643318 L132.620461,27.8185374 C132.620461,27.3559206 132.253261,27.1091916 131.763355,27.1091916 L131.610355,27.1091916 C129.621355,27.2942383 126.378061,27.5718084 122.920261,27.5718084 C118.391461,27.5718084 117.259261,24.3029579 117.259261,21.527257 L117.259261,21.3730514 L132.651061,21.3730514 C133.354861,21.4035841 133.630261,20.9718084 133.630261,20.2007804 L133.630261,20.2007804 Z M127.357261,16.9316215 L117.351061,16.9316215 L117.351061,16.7465748 C117.351061,12.9842664 119.462461,10.8867617 122.400061,10.8867617 C125.337355,10.8867617 127.357261,13.0151075 127.357261,16.7465748 L127.357261,16.9316215 Z M153.000061,31.7662009 L153.000061,28.8054533 C153.000061,28.3428364 152.632861,28.0964159 152.020861,28.0964159 L148.257061,28.0964159 C146.237461,28.0964159 145.380355,27.7568551 145.380355,25.8755467 L145.380355,10.5169766 L152.020861,10.5169766 C152.541061,10.5169766 152.969461,10.0852009 152.969461,9.56059346 L152.969461,6.7540514 C152.969461,6.23006075 152.541061,5.79797664 152.020861,5.79797664 L145.380355,5.79797664 L145.380355,1.1412757 C145.380355,0.678658879 145.013461,0.185200935 144.585061,0.185200935 L144.432061,0.185200935 L140.056261,0.956228972 C139.536061,1.04844393 139.107355,1.38769626 139.107355,1.91230374 L139.107355,25.8755467 C139.107355,31.3964159 141.892261,32.9998458 146.574061,32.9998458 C148.563061,32.9998458 150.949861,32.8147991 152.082061,32.6300607 C152.694061,32.537229 153.000061,32.2288178 153.000061,31.7662009 L153.000061,31.7662009 Z" id="Fill-1" fill="#434346" mask="url(#mask-2)"></path>
                </g>
                <path d="M48.9483621,19.0000894 L55.4474767,9.6970422 C56.3759217,8.37701524 56.1063731,6.52269165 54.84848,5.57981525 C53.5905868,4.60550964 51.8235465,4.88837256 50.9250514,6.20839952 L42,19.0000894 L50.9250514,31.7914649 C51.8534963,33.1114918 53.5905868,33.3946691 54.84848,32.4200492 C56.1063731,31.4460578 56.3759217,29.6231635 55.4474767,28.3031365 L48.9483621,19.0000894 Z" id="Fill-4" fill="#434346"></path>
                <path d="M33.0516379,19.0000894 L26.5525233,9.6970422 C25.6240783,8.37701524 25.8936269,6.52269165 27.15152,5.57981525 C28.4094132,4.60550964 30.1764535,4.88837256 31.0749486,6.20839952 L40,19.0000894 L31.0749486,31.7914649 C30.1465037,33.1114918 28.4094132,33.3946691 27.15152,32.4200492 C25.8936269,31.4460578 25.6240783,29.6231635 26.5525233,28.3031365 L33.0516379,19.0000894 Z" id="Fill-6" fill="#434346"></path>
            </g>
        </g>
    </g>
</svg>